<svg width="38" height="40" viewBox="0 0 38 40" fill="none" xmlns="http://www.w3.org/2000/svg">
<path d="M24.341 0.182117C25.0788 0.258445 25.7939 0.444132 26.5171 0.59545C27.1615 0.729806 27.7822 0.934687 28.4024 1.13778C28.9438 1.31499 29.4724 1.53192 29.9946 1.76269C30.3839 1.93499 30.7664 2.12068 31.1403 2.31797C31.5283 2.52285 31.9135 2.73711 32.286 2.97279C32.6445 3.19999 33.0052 3.42361 33.3501 3.66911C33.8796 4.04585 34.3878 4.4507 34.8764 4.87831C34.9114 4.90911 34.9722 4.92563 34.9627 4.99124C34.7462 4.92875 34.5693 4.79127 34.3977 4.66094C34.1323 4.45963 33.8337 4.32125 33.547 4.16011C33.1232 3.92176 32.6862 3.70215 32.2284 3.54056C31.7502 3.37184 31.2796 3.18079 30.781 3.06384C30.2814 2.94645 29.785 2.81254 29.2854 2.69381C29.1747 2.65721 29.064 2.62105 28.9533 2.58445C28.9061 2.54606 28.8544 2.51928 28.7904 2.52419C28.7872 2.51705 28.7818 2.51526 28.7745 2.51883C28.5953 2.44875 28.4183 2.37243 28.2259 2.34163C28.221 2.33449 28.2146 2.33225 28.2064 2.33582C28.1547 2.30369 28.0984 2.28672 28.0372 2.28449C28.0177 2.28226 27.9977 2.28003 27.9782 2.2778C27.8938 2.25771 27.809 2.23762 27.7246 2.21754C27.7191 2.20995 27.7123 2.20816 27.7037 2.21173C27.5213 2.10639 27.3085 2.10282 27.1111 2.04747C26.7594 1.94838 26.4028 1.85732 26.0321 1.85107L26.0185 1.84527L26.0035 1.84706C25.9799 1.83768 25.9568 1.8234 25.9323 1.81983C25.4858 1.74885 25.0407 1.66851 24.5924 1.61137C24.1237 1.55201 23.654 1.49487 23.1803 1.48773C22.1349 1.42033 21.0895 1.43283 20.0441 1.49353C20.0345 1.49398 20.0255 1.50157 20.0159 1.50559C19.8689 1.50425 19.7219 1.50157 19.5785 1.53951C19.5581 1.5404 19.5372 1.54174 19.5168 1.54264C19.3653 1.5279 19.2164 1.55915 19.0681 1.57611C18.7241 1.61584 18.377 1.63905 18.0394 1.72207L18.0258 1.72029L18.0136 1.72654C17.8938 1.7252 17.7776 1.74484 17.6646 1.78412C17.6238 1.78903 17.5834 1.79349 17.5426 1.7984C17.5249 1.79215 17.5126 1.79572 17.5063 1.81358L17.5085 1.81269C17.2889 1.84304 17.0657 1.85018 16.8506 1.9091L16.8357 1.90821L16.8225 1.9158C16.7358 1.92428 16.6487 1.93053 16.5688 1.9707C16.5489 1.97338 16.5294 1.97605 16.5094 1.97873C16.3633 2.01444 16.209 2.02158 16.0734 2.09613C15.7018 2.1854 15.3224 2.25102 14.9603 2.36886C14.2992 2.584 13.6322 2.78174 12.9843 3.04063C12.546 3.21561 12.1108 3.4004 11.6825 3.59412C11.2723 3.77937 10.8694 3.98469 10.4719 4.19939C9.85573 4.53194 9.25362 4.8868 8.67464 5.27513C8.1728 5.61125 7.68095 5.96298 7.2077 6.3406C6.98763 6.51647 6.77074 6.70171 6.54795 6.87579C6.32789 7.04764 6.1228 7.24672 5.91317 7.43509C5.52976 7.77968 5.16722 8.14525 4.80876 8.51217C4.62454 8.70053 4.44259 8.90006 4.26971 9.1036C4.07052 9.33794 3.86634 9.5705 3.66851 9.80618C3.38401 10.145 3.12628 10.5052 2.86311 10.8609C2.51691 11.3283 2.19339 11.8117 1.89347 12.3063C1.53456 12.8981 1.20287 13.5065 0.898863 14.1301C0.696494 14.5457 0.538592 14.9804 0.321703 15.3871C0.186035 15.6415 0.167885 15.9343 0 16.1928C0.137938 15.6357 0.286311 15.1023 0.462363 14.5733C0.670631 13.9493 0.915198 13.3405 1.17383 12.7375C1.41885 12.1666 1.68837 11.6046 2.00327 11.068C2.20564 10.7235 2.40166 10.3748 2.61764 10.0369C2.83952 9.69012 3.06412 9.34597 3.30188 9.01076C3.81688 8.28452 4.37634 7.59176 4.98663 6.94052C5.30243 6.60351 5.6323 6.27901 5.96308 5.95539C6.37735 5.5492 6.81748 5.17336 7.2635 4.806C7.48402 4.62433 7.71362 4.44579 7.94593 4.27438C8.26991 4.03469 8.60522 3.81017 8.93237 3.57538C9.24228 3.35309 9.58667 3.17856 9.90973 2.97368C10.2863 2.73532 10.6806 2.5233 11.0808 2.3327C11.4343 2.16397 11.7728 1.96132 12.1517 1.8359C12.4353 1.74216 12.6975 1.58325 12.9797 1.47702C13.8065 1.16546 14.6454 0.886479 15.503 0.669993C16.7476 0.355752 18.0113 0.1473 19.2945 0.0575811C19.4519 0.046422 19.6148 0.0598128 19.7668 0C20.7065 0 21.6467 0 22.5864 0C22.8028 0.0531173 23.0233 0.0575809 23.2448 0.0598127C23.2547 0.0642764 23.2647 0.0651692 23.2752 0.0620446C23.6291 0.113376 23.983 0.162477 24.341 0.182117Z" fill="#0087FF"/>
<path d="M16.1958 11.5903C15.7289 11.9559 15.321 12.3786 14.9507 12.837C14.5219 13.3682 14.1757 13.9475 13.9126 14.5756C13.555 15.4295 13.4361 16.3177 13.4588 17.2368C13.477 17.9836 13.6326 18.6982 13.8413 19.4115C14.0106 19.99 14.2266 20.5493 14.4793 21.0938C14.6535 21.4697 14.8455 21.8388 15.0556 22.1995C15.2602 22.5503 15.4807 22.8905 15.7117 23.2221C16.12 23.8077 16.5756 24.3603 17.0724 24.8772C17.5843 25.4093 18.1256 25.9092 18.7064 26.3703C18.9614 26.5725 19.2191 26.7716 19.4841 26.9586C19.8929 27.247 20.3135 27.5215 20.7459 27.7746C21.2863 28.091 21.844 28.3816 22.4184 28.6343C23.198 28.9775 24.0015 29.2605 24.8183 29.5069C24.9272 29.5395 25.0433 29.5493 25.1559 29.5699C26.5071 29.9524 27.8906 30.0662 29.2894 30.0439C29.9578 30.0332 30.6248 30.0452 31.2786 30.201C31.4647 30.2452 31.6484 30.3099 31.8236 30.3862C31.9833 30.4559 32.1285 30.5652 32.1417 30.7545C32.1548 30.9415 32.03 31.0629 31.8871 31.1696C31.5268 31.4388 31.1121 31.5727 30.6788 31.6803C29.6252 31.9418 28.5567 31.9967 27.4781 31.9409C26.6641 31.899 25.8623 31.7704 25.0592 31.6379C24.4603 31.5388 23.884 31.3656 23.296 31.2303C22.6948 31.092 22.1294 30.8523 21.5382 30.6889C21.4914 30.6759 21.4479 30.6367 21.3934 30.6657C21.402 30.6099 21.3667 30.6076 21.3231 30.6076C21.3408 30.6402 21.363 30.6585 21.3952 30.6643C21.402 30.7599 21.4973 30.7719 21.55 30.8241C21.7741 31.0464 22.0337 31.2285 22.2909 31.4071C22.6167 31.6334 22.942 31.8642 23.3032 32.0374C23.4103 32.0887 23.5056 32.1632 23.6109 32.2195C24.3441 32.61 25.1087 32.9354 25.8968 33.1988C26.7948 33.4992 27.7177 33.7108 28.6533 33.8724C30.1112 34.1241 31.5795 34.1321 33.0528 34.1009C34.3155 34.0741 35.5547 33.8795 36.7948 33.6733C37.1551 33.6135 37.509 33.5287 37.8652 33.4541C37.9042 33.4461 37.9419 33.4273 37.9999 33.4563C37.8379 33.5251 37.6932 33.6094 37.5367 33.6483C37.1564 33.7429 36.8061 33.9241 36.4273 34.0143C35.7702 34.1705 35.1373 34.4089 34.468 34.5294C33.9417 34.624 33.4262 34.7874 32.8953 34.8637C31.7814 35.0235 30.6693 35.2012 29.5422 35.2619C28.6601 35.3092 27.7785 35.3083 26.8964 35.2882C25.7884 35.2632 24.6944 35.1092 23.6009 34.9392C22.9711 34.841 22.359 34.6754 21.7378 34.545C21.1339 34.4183 20.5567 34.2125 19.9741 34.0264C19.347 33.8264 18.7372 33.5737 18.1333 33.3082C17.7295 33.1305 17.3338 32.9372 16.9399 32.7422C16.4939 32.5208 16.0633 32.269 15.6164 32.0481C15.1499 31.8177 14.7275 31.5245 14.3105 31.2165C14.0569 31.029 13.8078 30.8353 13.5759 30.6264C13.237 30.3206 12.9075 30.0042 12.5954 29.6689C12.3708 29.4284 12.1511 29.1824 11.9393 28.9324C11.6303 28.5682 11.3349 28.1906 11.0626 27.7991C10.9338 27.6139 10.8013 27.4309 10.6742 27.2443C10.5222 26.9256 10.2808 26.6596 10.1252 26.3426V26.3413C10.1102 26.2623 10.0476 26.215 9.99814 26.1583V26.1569C9.89605 25.965 9.7935 25.7735 9.69141 25.5816C9.75993 25.8659 9.78352 26.1596 9.92327 26.4203C10.0971 26.9126 10.269 27.4045 10.4746 27.8871C10.6415 28.2794 10.8575 28.6468 11.0182 29.0405C11.0662 29.1579 11.1357 29.2677 11.2015 29.3775C11.4628 29.8131 11.7092 30.259 11.9946 30.6791C12.3172 31.154 12.6521 31.6213 13.0178 32.0686C13.1889 32.2775 13.369 32.4837 13.5355 32.698C13.6902 32.897 13.8731 33.0832 14.0537 33.2662C14.2883 33.5046 14.5029 33.7634 14.7511 33.9862C14.9421 34.158 15.1091 34.3544 15.3128 34.5124C15.5411 34.6888 15.7262 34.9142 15.9685 35.0749C16.0474 35.19 16.1491 35.2789 16.2829 35.328C16.5956 35.6493 16.969 35.898 17.3261 36.1653C17.5942 36.3662 17.8615 36.5702 18.1419 36.7541C18.4877 36.9808 18.8352 37.2054 19.1819 37.4303C19.5558 37.6727 19.9428 37.8932 20.3267 38.1173C20.8439 38.419 21.3757 38.6998 21.9175 38.9569C22.3944 39.1828 22.8685 39.4175 23.3645 39.6032C23.4316 39.6282 23.4865 39.6724 23.5446 39.7148C23.6771 39.8117 23.8568 39.7983 24.0065 39.8657C24.1 39.9076 24.2012 39.9318 24.3269 39.9728C24.2484 40.0188 24.198 39.9947 24.1472 39.9849C23.4666 39.8545 22.8032 39.6626 22.1376 39.4742C21.5373 39.3042 20.9483 39.1042 20.3634 38.8944C19.8371 38.7051 19.3139 38.5038 18.7998 38.2793C18.3779 38.095 17.955 37.9097 17.5412 37.7098C17.1219 37.5071 16.6908 37.3228 16.2979 37.0683C16.2294 37.0237 16.16 36.9737 16.0715 36.971C16.0506 36.963 16.0297 36.9549 16.0089 36.9469L16.0102 36.9487C15.9993 36.9375 15.9884 36.9268 15.978 36.9157L15.9794 36.9166C15.7257 36.7344 15.4458 36.5934 15.1803 36.4305C14.7207 36.1488 14.2706 35.8515 13.8168 35.5605L13.8177 35.5614C13.8055 35.531 13.7792 35.519 13.7501 35.5105C13.4484 35.2927 13.1408 35.082 12.8463 34.8548C12.565 34.6379 12.2973 34.4035 12.0227 34.1781C11.2137 33.513 10.4741 32.7779 9.77808 32.0012C9.56935 31.7686 9.37651 31.5196 9.1746 31.2808C8.80117 30.8402 8.47221 30.3684 8.15005 29.8944C7.97536 29.6373 7.80203 29.3739 7.64503 29.1025C7.39775 28.6758 7.14637 28.2495 6.93629 27.8063C6.72802 27.367 6.51975 26.9265 6.33599 26.4743C6.071 25.8217 5.87045 25.15 5.63949 24.4871C5.60819 24.3974 5.59367 24.3023 5.56553 24.1867C5.33912 24.5005 5.26153 24.8366 5.23022 25.1866C5.15717 26.0052 5.3187 26.7984 5.48794 27.5933C5.64312 28.3218 5.87544 29.0271 6.1132 29.7301C6.30876 30.3072 6.55061 30.8692 6.7616 31.4415C6.86233 31.7155 6.93538 31.999 6.99074 32.2864C7.00208 32.3453 7.02749 32.4244 6.96034 32.4534C6.88819 32.4846 6.8401 32.4159 6.79699 32.3636C6.43763 31.9289 6.17491 31.4361 5.89994 30.9487C5.48477 30.2131 5.13176 29.448 4.78283 28.6825C4.48154 28.021 4.23788 27.334 3.96882 26.6582C3.9729 26.6399 3.96473 26.6301 3.94658 26.627L3.94567 26.6261C3.90393 26.3114 3.77552 26.0239 3.65846 25.7329C3.64484 25.6892 3.63169 25.6454 3.61807 25.6017C3.61263 25.5843 3.60764 25.5664 3.60219 25.549C3.58631 25.4075 3.52279 25.2803 3.4815 25.1464C3.47923 25.1263 3.47741 25.1067 3.47514 25.0866C3.46788 25.0415 3.46425 24.996 3.45246 24.9522C3.25599 24.2273 3.0763 23.4993 3.06088 22.7432C3.06088 22.5677 3.06088 22.3919 3.06088 22.2164C3.045 22.3227 2.99463 22.4231 3.01142 22.5307C2.92112 23.1819 2.85715 23.8354 2.84399 24.4933C2.81359 24.5456 2.82266 24.6032 2.82221 24.6585C2.81495 25.1696 2.79816 25.6807 2.80724 26.1913C2.81586 26.656 2.83809 27.1211 2.9116 27.5817C2.93065 27.9982 3.03365 28.4035 3.08629 28.8155C3.13665 29.2101 3.28049 29.5792 3.3971 29.9568C3.52642 30.3751 3.74739 30.7558 3.87807 31.1719C3.92753 31.3294 3.95157 31.4914 3.93206 31.6575C3.918 31.7789 3.84721 31.8026 3.74467 31.7561C3.6149 31.6977 3.50736 31.6097 3.41389 31.5039C3.02912 31.0692 2.73827 30.5746 2.47328 30.064C2.12481 29.3931 1.84848 28.6932 1.60164 27.9812C1.58304 27.9272 1.56625 27.8741 1.52904 27.8295C1.5236 27.6786 1.451 27.5451 1.41425 27.4023C1.29401 26.9367 1.1597 26.4748 1.03129 26.0119C1.02993 26.0012 1.02857 25.9909 1.0272 25.9802C1.01268 25.7677 0.987729 25.5575 0.910139 25.3566C0.845708 24.9669 0.782638 24.5773 0.715937 24.188C0.633356 23.7064 0.59252 23.2212 0.567564 22.7338C0.515384 21.7277 0.521736 20.7211 0.598872 19.7173C0.654229 18.9955 0.821206 18.2898 0.969579 17.581C1.08301 17.0404 1.28765 16.532 1.45372 16.0102C1.53812 15.7442 1.69829 15.5022 1.80764 15.2429C2.02317 14.7309 2.29133 14.2471 2.55949 13.761C2.73554 13.4418 2.94064 13.1419 3.12939 12.8321C3.3422 12.4826 3.59902 12.1585 3.8395 11.8255C4.01691 11.5791 4.21202 11.3466 4.40395 11.1136C4.59543 10.881 4.79599 10.652 5.00017 10.428C5.33594 10.0597 5.68033 9.6986 6.04151 9.35758C6.24524 9.1652 6.45623 8.97371 6.67176 8.79025C6.93447 8.56618 7.19946 8.343 7.46944 8.12874C7.83651 7.83726 8.20949 7.54936 8.60379 7.29582C8.89464 7.1088 9.18458 6.91865 9.48087 6.73876C9.87518 6.49951 10.2763 6.27008 10.6865 6.06341C11.1339 5.838 11.5876 5.62107 12.0504 5.42333C12.5523 5.20862 13.0595 5.00419 13.5732 4.82788C14.0818 4.6529 14.5809 4.44713 15.1055 4.30831C15.4126 4.22707 15.7275 4.13289 16.0207 3.99094C16.1191 3.94363 16.2421 3.94586 16.3537 3.92533C16.6382 3.88515 16.9073 3.7874 17.1804 3.70482C17.1877 3.70884 17.1931 3.70706 17.1972 3.70036C17.2753 3.69366 17.3492 3.67402 17.4191 3.63832C17.4386 3.63564 17.4581 3.63296 17.4781 3.63028C17.6283 3.60082 17.778 3.56913 17.9223 3.51512C17.9418 3.51289 17.9613 3.51066 17.9808 3.50798C18.0357 3.51289 18.0893 3.51066 18.1387 3.48343C18.1591 3.48164 18.1796 3.47941 18.2 3.47762C18.4273 3.46111 18.6419 3.38166 18.8661 3.34773C18.8856 3.34461 18.9006 3.31381 18.9178 3.29595C18.9818 3.29685 19.0462 3.31872 19.1088 3.29015C19.1528 3.29595 19.1946 3.2906 19.2327 3.2656H19.2336C19.4655 3.23569 19.6964 3.20132 19.9233 3.14285C19.9337 3.14196 19.9437 3.14107 19.9542 3.13973C20.1325 3.12053 20.3103 3.10089 20.4887 3.0817C20.4991 3.08661 20.5086 3.08572 20.5182 3.07947C20.6824 3.08304 20.8435 3.0634 21.0032 3.02546C21.01 3.03081 21.0159 3.03037 21.0204 3.02278C21.2151 3.02233 21.4075 3.00091 21.5985 2.96386L21.6076 2.96966L21.6171 2.96475C21.9556 2.94422 22.2941 2.92324 22.633 2.90271C22.9307 2.90048 23.2284 2.89824 23.5265 2.89601C23.8922 2.9161 24.2574 2.93618 24.6232 2.95627C24.6336 2.95672 24.6436 2.95761 24.654 2.95806C24.8101 3.01564 24.9866 2.97814 25.1422 3.05045C25.1227 3.10937 25.0637 3.10893 25.0365 3.14464C24.541 3.11875 24.061 3.23212 23.5805 3.31649C22.7596 3.46066 21.9375 3.59546 21.1312 3.81418C20.5944 3.9597 20.0562 4.10075 19.5204 4.25073C18.9282 4.41677 18.3538 4.63148 17.7785 4.83948C17.2771 5.02071 16.7843 5.22916 16.2961 5.44788C15.8451 5.65008 15.4049 5.87148 14.9693 6.10001C14.5905 6.29865 14.2189 6.51379 13.8536 6.74055C13.5192 6.94811 13.192 7.16593 12.869 7.38822C12.4356 7.68639 12.0268 8.01715 11.6275 8.35996C11.2591 8.67688 10.9088 9.0112 10.5744 9.35981C10.3915 9.55041 10.2159 9.75261 10.0372 9.94901C9.8475 10.1575 9.65965 10.3704 9.48087 10.5851C9.2844 10.8212 9.0843 11.0578 8.89237 11.2988C8.65234 11.6006 8.41549 11.9068 8.18771 12.2161C7.94178 12.5504 7.70584 12.8946 7.48577 13.2481C7.27387 13.5887 7.06651 13.9333 6.88865 14.2895C6.59235 14.8818 6.32964 15.492 6.24433 16.157C6.21302 16.4017 6.19306 16.6498 6.29424 16.8864C6.33372 16.9784 6.36548 17.0868 6.48799 17.1051C6.61368 17.1243 6.68446 17.0342 6.73256 16.9458C6.90952 16.6217 7.12142 16.3164 7.25799 15.9709C7.29338 15.8812 7.34602 15.7973 7.39593 15.7138C7.62235 15.3348 7.81065 14.9358 8.03071 14.5528C8.22219 14.2203 8.41367 13.8864 8.61468 13.5597C8.88602 13.1191 9.17914 12.6897 9.4895 12.2746C10.0603 11.5113 10.6851 10.7913 11.4061 10.1601C11.7813 9.83162 12.1738 9.52497 12.5949 9.24778C13.0078 8.97594 13.4371 8.73758 13.8785 8.52377C14.2316 8.35237 14.5714 8.15061 14.948 8.02563C15.105 7.97341 15.2516 7.89127 15.4031 7.82298C15.8723 7.6123 16.3587 7.43955 16.8469 7.28288C17.8139 6.97221 18.8016 6.73921 19.8253 6.6968C19.8825 6.69457 19.9396 6.69636 20.0172 6.69636C19.965 6.77269 19.8906 6.78831 19.8294 6.80438C19.5236 6.88428 19.2627 7.06372 18.9691 7.16772C18.5956 7.30029 18.2599 7.50785 17.8996 7.6672C17.5262 7.83191 17.1745 8.04482 16.817 8.24346C16.4277 8.4595 16.032 8.66795 15.6586 8.90854C15.3459 9.10985 15.0274 9.30268 14.7261 9.52184C14.4421 9.72851 14.1531 9.92893 13.8754 10.1436C13.5854 10.3677 13.3064 10.6038 13.0296 10.8435C12.8268 11.0189 12.6385 11.2095 12.4474 11.3939C12.2165 11.6166 12.0046 11.8621 11.8018 12.1157C11.5722 12.4027 11.3716 12.7062 11.162 13.0048C11.0168 13.2115 10.9165 13.4423 10.7818 13.6547C10.5689 13.9891 10.4042 14.3515 10.2518 14.7126C9.83071 15.7102 9.51536 16.7387 9.47361 17.8296C9.46318 18.1072 9.48178 18.3844 9.563 18.6531C9.59885 18.7714 9.64513 18.9192 9.77626 18.9316C9.90285 18.9437 9.96955 18.7995 10.0158 18.6964C10.1633 18.3692 10.3062 18.0389 10.431 17.7024C10.637 17.1489 10.8757 16.6088 11.1239 16.0736C11.3244 15.6415 11.5449 15.217 11.7832 14.8014C12.3186 13.8685 12.9466 13.0084 13.7628 12.2942C14.1118 11.9889 14.4766 11.6974 14.8586 11.4336C15.4499 11.0243 16.0606 10.6431 16.7167 10.3365C17.2789 10.074 17.8565 9.85662 18.4636 9.72449C18.7781 9.6562 19.1025 9.65486 19.4283 9.66825C19.0848 9.81153 18.7585 9.98294 18.4273 10.1436C18.0085 10.3467 17.6056 10.5784 17.2181 10.84C16.866 11.0765 16.5152 11.3118 16.1958 11.5903Z" fill="#0087FF"/>
</svg>
